<svg width="131" height="16" viewBox="0 0 131 16" fill="none" xmlns="http://www.w3.org/2000/svg">
<path d="M3.19922 0.78125V15H0.269531V0.78125H3.19922ZM8.86328 6.85547V9.14062H2.39844V6.85547H8.86328ZM9.54688 0.78125V3.07617H2.39844V0.78125H9.54688ZM22.9258 7.55859V8.23242C22.9258 9.31315 22.7793 10.2832 22.4863 11.1426C22.1934 12.002 21.7799 12.7344 21.2461 13.3398C20.7122 13.9388 20.0742 14.3978 19.332 14.7168C18.5964 15.0358 17.7793 15.1953 16.8809 15.1953C15.9889 15.1953 15.1719 15.0358 14.4297 14.7168C13.694 14.3978 13.056 13.9388 12.5156 13.3398C11.9753 12.7344 11.5553 12.002 11.2559 11.1426C10.9629 10.2832 10.8164 9.31315 10.8164 8.23242V7.55859C10.8164 6.47135 10.9629 5.5013 11.2559 4.64844C11.5488 3.78906 11.9622 3.05664 12.4961 2.45117C13.0365 1.8457 13.6745 1.38346 14.4102 1.06445C15.1523 0.745443 15.9694 0.585938 16.8613 0.585938C17.7598 0.585938 18.5768 0.745443 19.3125 1.06445C20.0547 1.38346 20.6927 1.8457 21.2266 2.45117C21.7669 3.05664 22.1836 3.78906 22.4766 4.64844C22.776 5.5013 22.9258 6.47135 22.9258 7.55859ZM19.9668 8.23242V7.53906C19.9668 6.78385 19.8984 6.11979 19.7617 5.54688C19.625 4.97396 19.4232 4.49219 19.1562 4.10156C18.8893 3.71094 18.5638 3.41797 18.1797 3.22266C17.7956 3.02083 17.3561 2.91992 16.8613 2.91992C16.3665 2.91992 15.9271 3.02083 15.543 3.22266C15.1654 3.41797 14.8431 3.71094 14.5762 4.10156C14.3158 4.49219 14.1172 4.97396 13.9805 5.54688C13.8438 6.11979 13.7754 6.78385 13.7754 7.53906V8.23242C13.7754 8.98112 13.8438 9.64518 13.9805 10.2246C14.1172 10.7975 14.319 11.2826 14.5859 11.6797C14.8529 12.0703 15.1784 12.3665 15.5625 12.5684C15.9466 12.7702 16.3861 12.8711 16.8809 12.8711C17.3757 12.8711 17.8151 12.7702 18.1992 12.5684C18.5833 12.3665 18.9056 12.0703 19.166 11.6797C19.4264 11.2826 19.625 10.7975 19.7617 10.2246C19.8984 9.64518 19.9668 8.98112 19.9668 8.23242ZM36.7148 7.55859V8.23242C36.7148 9.31315 36.5684 10.2832 36.2754 11.1426C35.9824 12.002 35.569 12.7344 35.0352 13.3398C34.5013 13.9388 33.8633 14.3978 33.1211 14.7168C32.3854 15.0358 31.5684 15.1953 30.6699 15.1953C29.778 15.1953 28.9609 15.0358 28.2188 14.7168C27.4831 14.3978 26.8451 13.9388 26.3047 13.3398C25.7643 12.7344 25.3444 12.002 25.0449 11.1426C24.752 10.2832 24.6055 9.31315 24.6055 8.23242V7.55859C24.6055 6.47135 24.752 5.5013 25.0449 4.64844C25.3379 3.78906 25.7513 3.05664 26.2852 2.45117C26.8255 1.8457 27.4635 1.38346 28.1992 1.06445C28.9414 0.745443 29.7585 0.585938 30.6504 0.585938C31.5488 0.585938 32.3659 0.745443 33.1016 1.06445C33.8438 1.38346 34.4818 1.8457 35.0156 2.45117C35.556 3.05664 35.9727 3.78906 36.2656 4.64844C36.5651 5.5013 36.7148 6.47135 36.7148 7.55859ZM33.7559 8.23242V7.53906C33.7559 6.78385 33.6875 6.11979 33.5508 5.54688C33.4141 4.97396 33.2122 4.49219 32.9453 4.10156C32.6784 3.71094 32.3529 3.41797 31.9688 3.22266C31.5846 3.02083 31.1452 2.91992 30.6504 2.91992C30.1556 2.91992 29.7161 3.02083 29.332 3.22266C28.9544 3.41797 28.6322 3.71094 28.3652 4.10156C28.1048 4.49219 27.9062 4.97396 27.7695 5.54688C27.6328 6.11979 27.5645 6.78385 27.5645 7.53906V8.23242C27.5645 8.98112 27.6328 9.64518 27.7695 10.2246C27.9062 10.7975 28.1081 11.2826 28.375 11.6797C28.6419 12.0703 28.9674 12.3665 29.3516 12.5684C29.7357 12.7702 30.1751 12.8711 30.6699 12.8711C31.1647 12.8711 31.6042 12.7702 31.9883 12.5684C32.3724 12.3665 32.6947 12.0703 32.9551 11.6797C33.2155 11.2826 33.4141 10.7975 33.5508 10.2246C33.6875 9.64518 33.7559 8.98112 33.7559 8.23242ZM43.1895 15H40.0938L40.1133 12.7148H43.1895C43.9577 12.7148 44.6055 12.5423 45.1328 12.1973C45.6602 11.8457 46.0573 11.3346 46.3242 10.6641C46.5977 9.99349 46.7344 9.18294 46.7344 8.23242V7.53906C46.7344 6.8099 46.6562 6.16862 46.5 5.61523C46.3503 5.06185 46.1257 4.59635 45.8262 4.21875C45.5267 3.84115 45.1589 3.55794 44.7227 3.36914C44.2865 3.17383 43.7852 3.07617 43.2188 3.07617H40.0352V0.78125H43.2188C44.1693 0.78125 45.0384 0.94401 45.8262 1.26953C46.6204 1.58854 47.3073 2.04753 47.8867 2.64648C48.4661 3.24544 48.9121 3.96159 49.2246 4.79492C49.5436 5.62174 49.7031 6.54297 49.7031 7.55859V8.23242C49.7031 9.24154 49.5436 10.1628 49.2246 10.9961C48.9121 11.8294 48.4661 12.5456 47.8867 13.1445C47.3138 13.737 46.627 14.196 45.8262 14.5215C45.0319 14.8405 44.153 15 43.1895 15ZM41.7539 0.78125V15H38.8242V0.78125H41.7539ZM62.3496 9.93164H58.7266V7.64648H62.3496C62.9095 7.64648 63.3652 7.55534 63.7168 7.37305C64.0684 7.18424 64.3255 6.92383 64.4883 6.5918C64.651 6.25977 64.7324 5.88542 64.7324 5.46875C64.7324 5.04557 64.651 4.65169 64.4883 4.28711C64.3255 3.92253 64.0684 3.62956 63.7168 3.4082C63.3652 3.18685 62.9095 3.07617 62.3496 3.07617H59.7422V15H56.8125V0.78125H62.3496C63.4629 0.78125 64.4167 0.983073 65.2109 1.38672C66.0117 1.78385 66.6237 2.33398 67.0469 3.03711C67.4701 3.74023 67.6816 4.54427 67.6816 5.44922C67.6816 6.36719 67.4701 7.16146 67.0469 7.83203C66.6237 8.5026 66.0117 9.02018 65.2109 9.38477C64.4167 9.74935 63.4629 9.93164 62.3496 9.93164ZM78.8438 12.7148V15H71.6855V12.7148H78.8438ZM72.6328 0.78125V15H69.7031V0.78125H72.6328ZM86.5 3.21289L82.6328 15H79.5176L84.8008 0.78125H86.7832L86.5 3.21289ZM89.7129 15L85.8359 3.21289L85.5234 0.78125H87.5254L92.8379 15H89.7129ZM89.5371 9.70703V12.002H82.0273V9.70703H89.5371ZM105.729 0.78125V15H102.799L97.0859 5.46875V15H94.1562V0.78125H97.0859L102.809 10.3223V0.78125H105.729ZM117.818 12.7148V15H110.25V12.7148H117.818ZM111.207 0.78125V15H108.277V0.78125H111.207ZM116.832 6.57227V8.79883H110.25V6.57227H116.832ZM117.809 0.78125V3.07617H110.25V0.78125H117.809ZM126.08 0.78125V15H123.16V0.78125H126.08ZM130.455 0.78125V3.07617H118.854V0.78125H130.455Z" fill="#254F4C"/>
</svg>
