<svg width="161" height="16" viewBox="0 0 161 16" fill="none" xmlns="http://www.w3.org/2000/svg">
<path d="M9.00781 12H7.5V1.85938H1.89062V12H0.390625V0.625H9.00781V12ZM18.4453 3.54688V12H16.9922V4.74219H14.1172L13.9453 7.90625C13.8516 9.35938 13.6068 10.3984 13.2109 11.0234C12.8203 11.6484 12.1979 11.974 11.3438 12H10.7656V10.7266L11.1797 10.6953C11.6484 10.6432 11.9844 10.3724 12.1875 9.88281C12.3906 9.39323 12.5208 8.48698 12.5781 7.16406L12.7344 3.54688H18.4453ZM25.9844 12C25.901 11.8333 25.8333 11.5365 25.7812 11.1094C25.1094 11.8073 24.3073 12.1562 23.375 12.1562C22.5417 12.1562 21.8568 11.9219 21.3203 11.4531C20.7891 10.9792 20.5234 10.3802 20.5234 9.65625C20.5234 8.77604 20.8568 8.09375 21.5234 7.60938C22.1953 7.11979 23.138 6.875 24.3516 6.875H25.7578V6.21094C25.7578 5.70573 25.6068 5.30469 25.3047 5.00781C25.0026 4.70573 24.5573 4.55469 23.9688 4.55469C23.4531 4.55469 23.0208 4.6849 22.6719 4.94531C22.3229 5.20573 22.1484 5.52083 22.1484 5.89062H20.6953C20.6953 5.46875 20.8438 5.0625 21.1406 4.67188C21.4427 4.27604 21.849 3.96354 22.3594 3.73438C22.875 3.50521 23.4401 3.39062 24.0547 3.39062C25.0286 3.39062 25.7917 3.63542 26.3438 4.125C26.8958 4.60938 27.1823 5.27865 27.2031 6.13281V10.0234C27.2031 10.7995 27.3021 11.4167 27.5 11.875V12H25.9844ZM23.5859 10.8984C24.0391 10.8984 24.4688 10.7812 24.875 10.5469C25.2812 10.3125 25.5755 10.0078 25.7578 9.63281V7.89844H24.625C22.8542 7.89844 21.9688 8.41667 21.9688 9.45312C21.9688 9.90625 22.1198 10.2604 22.4219 10.5156C22.724 10.7708 23.112 10.8984 23.5859 10.8984ZM36.375 12H34.9297V8.39062H31.0469V12H29.5938V3.54688H31.0469V7.21094H34.9297V3.54688H36.375V12ZM42.2109 12.1562C41.0651 12.1562 40.1328 11.7812 39.4141 11.0312C38.6953 10.276 38.3359 9.26823 38.3359 8.00781V7.74219C38.3359 6.90365 38.4948 6.15625 38.8125 5.5C39.1354 4.83854 39.5833 4.32292 40.1562 3.95312C40.7344 3.57812 41.3594 3.39062 42.0312 3.39062C43.1302 3.39062 43.9844 3.7526 44.5938 4.47656C45.2031 5.20052 45.5078 6.23698 45.5078 7.58594V8.1875H39.7812C39.8021 9.02083 40.0443 9.69531 40.5078 10.2109C40.9766 10.7214 41.5703 10.9766 42.2891 10.9766C42.7995 10.9766 43.2318 10.8724 43.5859 10.6641C43.9401 10.4557 44.25 10.1797 44.5156 9.83594L45.3984 10.5234C44.6901 11.612 43.6276 12.1562 42.2109 12.1562ZM42.0312 4.57812C41.4479 4.57812 40.9583 4.79167 40.5625 5.21875C40.1667 5.64062 39.9219 6.23438 39.8281 7H44.0625V6.89062C44.0208 6.15625 43.8229 5.58854 43.4688 5.1875C43.1146 4.78125 42.6354 4.57812 42.0312 4.57812ZM53.375 4.71875H50.5391V12H49.0938V4.71875H46.3125V3.54688H53.375V4.71875ZM59.875 12C59.7917 11.8333 59.724 11.5365 59.6719 11.1094C59 11.8073 58.1979 12.1562 57.2656 12.1562C56.4323 12.1562 55.7474 11.9219 55.2109 11.4531C54.6797 10.9792 54.4141 10.3802 54.4141 9.65625C54.4141 8.77604 54.7474 8.09375 55.4141 7.60938C56.0859 7.11979 57.0286 6.875 58.2422 6.875H59.6484V6.21094C59.6484 5.70573 59.4974 5.30469 59.1953 5.00781C58.8932 4.70573 58.4479 4.55469 57.8594 4.55469C57.3438 4.55469 56.9115 4.6849 56.5625 4.94531C56.2135 5.20573 56.0391 5.52083 56.0391 5.89062H54.5859C54.5859 5.46875 54.7344 5.0625 55.0312 4.67188C55.3333 4.27604 55.7396 3.96354 56.25 3.73438C56.7656 3.50521 57.3307 3.39062 57.9453 3.39062C58.9193 3.39062 59.6823 3.63542 60.2344 4.125C60.7865 4.60938 61.0729 5.27865 61.0938 6.13281V10.0234C61.0938 10.7995 61.1927 11.4167 61.3906 11.875V12H59.875ZM57.4766 10.8984C57.9297 10.8984 58.3594 10.7812 58.7656 10.5469C59.1719 10.3125 59.4661 10.0078 59.6484 9.63281V7.89844H58.5156C56.7448 7.89844 55.8594 8.41667 55.8594 9.45312C55.8594 9.90625 56.0104 10.2604 56.3125 10.5156C56.6146 10.7708 57.0026 10.8984 57.4766 10.8984ZM67.4609 12V3.54688H70.7578C71.8828 3.54688 72.7448 3.74479 73.3438 4.14062C73.9479 4.53125 74.25 5.10677 74.25 5.86719C74.25 6.25781 74.1328 6.61198 73.8984 6.92969C73.6641 7.24219 73.3177 7.48177 72.8594 7.64844C73.3698 7.76823 73.7786 8.0026 74.0859 8.35156C74.3984 8.70052 74.5547 9.11719 74.5547 9.60156C74.5547 10.3776 74.2682 10.9714 73.6953 11.3828C73.1276 11.7943 72.3229 12 71.2812 12H67.4609ZM68.9062 8.28906V10.8359H71.2969C71.901 10.8359 72.3516 10.724 72.6484 10.5C72.9505 10.276 73.1016 9.96094 73.1016 9.55469C73.1016 8.71094 72.4818 8.28906 71.2422 8.28906H68.9062ZM68.9062 7.13281H70.7734C72.1276 7.13281 72.8047 6.73698 72.8047 5.94531C72.8047 5.15365 72.1641 4.74479 70.8828 4.71875H68.9062V7.13281ZM79.1016 8.39844H78.0469V12H76.5938V3.54688H78.0469V7.125H78.9922L81.8359 3.54688H83.5859L80.2422 7.60938L83.8672 12H82.0312L79.1016 8.39844ZM87.875 9.88281L89.8438 3.54688H91.3906L87.9922 13.3047C87.4661 14.7109 86.6302 15.4141 85.4844 15.4141L85.2109 15.3906L84.6719 15.2891V14.1172L85.0625 14.1484C85.5521 14.1484 85.9323 14.0495 86.2031 13.8516C86.4792 13.6536 86.7057 13.2917 86.8828 12.7656L87.2031 11.9062L84.1875 3.54688H85.7656L87.875 9.88281ZM95.9688 10.9766C96.4844 10.9766 96.9349 10.8203 97.3203 10.5078C97.7057 10.1953 97.9193 9.80469 97.9609 9.33594H99.3281C99.3021 9.82031 99.1354 10.2812 98.8281 10.7188C98.5208 11.1562 98.1094 11.5052 97.5938 11.7656C97.0833 12.026 96.5417 12.1562 95.9688 12.1562C94.8177 12.1562 93.901 11.7734 93.2188 11.0078C92.5417 10.237 92.2031 9.1849 92.2031 7.85156V7.60938C92.2031 6.78646 92.3542 6.05469 92.6562 5.41406C92.9583 4.77344 93.3906 4.27604 93.9531 3.92188C94.5208 3.56771 95.1901 3.39062 95.9609 3.39062C96.9089 3.39062 97.6953 3.67448 98.3203 4.24219C98.9505 4.8099 99.2865 5.54688 99.3281 6.45312H97.9609C97.9193 5.90625 97.7109 5.45833 97.3359 5.10938C96.9661 4.75521 96.5078 4.57812 95.9609 4.57812C95.2266 4.57812 94.6562 4.84375 94.25 5.375C93.849 5.90104 93.6484 6.66406 93.6484 7.66406V7.9375C93.6484 8.91146 93.849 9.66146 94.25 10.1875C94.651 10.7135 95.224 10.9766 95.9688 10.9766ZM107.859 12H106.414V8.39062H102.531V12H101.078V3.54688H102.531V7.21094H106.414V3.54688H107.859V12ZM109.805 7.69531C109.805 6.86719 109.966 6.1224 110.289 5.46094C110.617 4.79948 111.07 4.28906 111.648 3.92969C112.232 3.57031 112.896 3.39062 113.641 3.39062C114.792 3.39062 115.721 3.78906 116.43 4.58594C117.143 5.38281 117.5 6.44271 117.5 7.76562V7.86719C117.5 8.6901 117.341 9.42969 117.023 10.0859C116.711 10.737 116.26 11.2448 115.672 11.6094C115.089 11.974 114.417 12.1562 113.656 12.1562C112.51 12.1562 111.581 11.7578 110.867 10.9609C110.159 10.1641 109.805 9.10938 109.805 7.79688V7.69531ZM111.258 7.86719C111.258 8.80469 111.474 9.55729 111.906 10.125C112.344 10.6927 112.927 10.9766 113.656 10.9766C114.391 10.9766 114.974 10.6901 115.406 10.1172C115.839 9.53906 116.055 8.73177 116.055 7.69531C116.055 6.76823 115.833 6.01823 115.391 5.44531C114.953 4.86719 114.37 4.57812 113.641 4.57812C112.927 4.57812 112.352 4.86198 111.914 5.42969C111.477 5.9974 111.258 6.8099 111.258 7.86719ZM124.781 3.54688H126.227V12H124.781V5.83594L120.883 12H119.438V3.54688H120.883V9.71875L124.781 3.54688ZM125.172 0.46875C125.172 1.09896 124.956 1.60677 124.523 1.99219C124.096 2.3724 123.534 2.5625 122.836 2.5625C122.138 2.5625 121.573 2.36979 121.141 1.98438C120.708 1.59896 120.492 1.09375 120.492 0.46875H121.672C121.672 0.833333 121.771 1.11979 121.969 1.32812C122.167 1.53125 122.456 1.63281 122.836 1.63281C123.201 1.63281 123.484 1.53125 123.688 1.32812C123.896 1.125 124 0.838542 124 0.46875H125.172ZM136.023 12.1562C134.878 12.1562 133.945 11.7812 133.227 11.0312C132.508 10.276 132.148 9.26823 132.148 8.00781V7.74219C132.148 6.90365 132.307 6.15625 132.625 5.5C132.948 4.83854 133.396 4.32292 133.969 3.95312C134.547 3.57812 135.172 3.39062 135.844 3.39062C136.943 3.39062 137.797 3.7526 138.406 4.47656C139.016 5.20052 139.32 6.23698 139.32 7.58594V8.1875H133.594C133.615 9.02083 133.857 9.69531 134.32 10.2109C134.789 10.7214 135.383 10.9766 136.102 10.9766C136.612 10.9766 137.044 10.8724 137.398 10.6641C137.753 10.4557 138.062 10.1797 138.328 9.83594L139.211 10.5234C138.503 11.612 137.44 12.1562 136.023 12.1562ZM135.844 4.57812C135.26 4.57812 134.771 4.79167 134.375 5.21875C133.979 5.64062 133.734 6.23438 133.641 7H137.875V6.89062C137.833 6.15625 137.635 5.58854 137.281 5.1875C136.927 4.78125 136.448 4.57812 135.844 4.57812ZM140.93 10.8203L141.43 10.2031C141.992 9.47396 142.312 8.38021 142.391 6.92188L142.523 3.54688H147.969V10.8203H149.055V14.4844H147.609V12H141.711V14.4844H140.266L140.273 10.8203H140.93ZM142.641 10.8203H146.523V4.88281H143.922L143.836 6.89844C143.747 8.58073 143.349 9.88802 142.641 10.8203ZM152.234 6.46094H154.43C155.388 6.47135 156.146 6.72135 156.703 7.21094C157.26 7.70052 157.539 8.36458 157.539 9.20312C157.539 10.0469 157.253 10.724 156.68 11.2344C156.107 11.7448 155.336 12 154.367 12H150.789V3.54688H152.234V6.46094ZM160.555 12H159.102V3.54688H160.555V12ZM152.234 7.64062V10.8203H154.383C154.924 10.8203 155.344 10.6823 155.641 10.4062C155.938 10.125 156.086 9.74219 156.086 9.25781C156.086 8.78906 155.94 8.40625 155.648 8.10938C155.362 7.80729 154.958 7.65104 154.438 7.64062H152.234Z" fill="#1D3130"/>
</svg>
